<svg width="95" height="24" viewBox="0 0 95 24" fill="none" xmlns="http://www.w3.org/2000/svg"><path d="M92.9604 0H88.4763C88.2116 0 87.9314 0.0150094 87.6667 0.0450281L41.2379 4.68293C40.5684 4.74296 40.2103 5.05816 40.2103 5.68856V6.16886C40.2103 6.70919 40.6774 7.15947 41.2379 7.15947H92.9604C94.0814 7.15947 95 6.27392 95 5.19325V1.96623C95 0.885554 94.0814 0 92.9604 0Z" fill="#364FD9"/><path d="M10.7993 23.7749H9.61596C9.33571 23.7749 9.10217 23.5497 9.10217 23.2796V22.7392C7.87216 23.4297 6.57988 23.955 5.14747 23.955C2.96772 23.955 0.959229 23.0394 0.959229 19.9475V19.6473C0.959229 16.9756 2.57847 15.6398 7.15596 15.6398H9.05546V14.6492C9.05546 12.5629 8.30811 11.8424 6.29963 11.8424C4.63367 11.8424 3.3881 11.9475 2.3605 12.0375C2.31379 12.0375 2.28265 12.0375 2.23594 12.0375C2.0024 12.0375 1.76885 11.9625 1.76885 11.6473V10.7768C1.76885 10.5066 1.95569 10.3565 2.31379 10.3115C3.37253 10.1313 4.55582 9.99626 6.29963 9.99626C9.88065 9.99626 11.3131 11.7373 11.3131 14.6492V23.2946C11.3131 23.5647 11.0951 23.7749 10.7993 23.7749ZM9.05546 17.1858H7.15596C4.04202 17.1858 3.21683 17.8612 3.21683 19.6173V19.9175C3.21683 21.7036 4.08873 22.1689 5.58342 22.1689C6.76672 22.1689 7.82545 21.8237 9.05546 21.1783V17.1858Z" fill="#364FD9"/><path d="M23.6598 23.7749H15.8905C14.7851 23.7749 14.318 23.0995 14.318 22.409V21.9437C14.318 21.2533 14.4737 20.8781 14.9096 20.3377L21.5423 12.3828C21.589 12.3077 21.6513 12.2327 21.6513 12.1576C21.6513 12.0526 21.6046 11.9775 21.3866 11.9775H15.1432C14.8629 11.9775 14.6294 11.7524 14.6294 11.4822V10.6417C14.6294 10.3715 14.8629 10.1464 15.1432 10.1464H22.6945C23.7532 10.1464 24.1269 10.6117 24.1269 11.3621V11.9625C24.1269 12.4878 23.9401 12.8481 23.5352 13.3284L16.778 21.4784C16.669 21.5835 16.6534 21.6736 16.6534 21.7486C16.6534 21.8687 16.6846 21.9437 16.8558 21.9437H23.6442C23.9245 21.9437 24.158 22.1689 24.158 22.439V23.2796C24.1736 23.5647 23.9401 23.7749 23.6598 23.7749Z" fill="#364FD9"/><path d="M41.9853 23.7749H40.7553C40.475 23.7749 40.2415 23.5497 40.2415 23.2796V10.0713C40.2415 9.80114 40.475 9.576 40.7553 9.576H41.9853C42.2655 9.576 42.4991 9.80114 42.4991 10.0713V23.2796C42.4991 23.5647 42.2655 23.7749 41.9853 23.7749Z" fill="#364FD9"/><path d="M59.0341 10.1464L55.7956 21.4034C55.1572 23.6098 53.5847 24 52.0744 24C50.5642 24 49.0228 23.6098 48.3689 21.4034L45.1615 10.1464C45.1304 10.1013 45.1304 10.0413 45.1304 9.99626C45.1304 9.7411 45.3172 9.576 45.5352 9.576H48.9294C49.1941 9.576 49.3965 9.80114 49.4743 10.1013L51.6852 19.8124C51.763 20.1876 51.8876 20.3377 52.0744 20.3377C52.2613 20.3377 52.4014 20.1876 52.4793 19.8124L54.6901 10.1013C54.768 9.80114 54.9704 9.576 55.2351 9.576H58.6293C58.8628 9.576 59.0652 9.75611 59.0652 9.99626C59.0652 10.0563 59.0652 10.1013 59.0341 10.1464Z" fill="#364FD9"/><path d="M71.9881 23.7749H69.1077C68.8274 23.7749 68.5939 23.5497 68.5939 23.2796V22.8893C67.5974 23.5798 66.5698 24 65.0128 24C62.7708 24 60.6222 22.9644 60.6222 19.7373V19.5122C60.6222 16.6154 62.5528 15.3246 66.9435 15.3246H68.3292V14.439C68.3292 13.0282 67.613 12.728 66.3985 12.728C64.7482 12.728 62.9265 12.833 62.1324 12.9081H62.0079C61.7432 12.9081 61.5408 12.788 61.5408 12.4578V10.4465C61.5408 10.1764 61.7276 9.98125 62.0235 9.9062C62.9732 9.68106 64.7793 9.38087 66.4764 9.38087C70.182 9.38087 72.4863 10.8218 72.4863 14.439V23.2796C72.5019 23.5647 72.2683 23.7749 71.9881 23.7749ZM68.4226 17.7111H66.959C65.153 17.7111 64.7014 18.3115 64.7014 19.5272V19.7524C64.7014 20.788 65.2464 20.9981 66.3207 20.9981C67.0992 20.9981 67.8154 20.743 68.4226 20.4578V17.7111Z" fill="#364FD9"/><path d="M94.4551 23.7749H91.3412C91.0609 23.7749 90.8274 23.5197 90.8274 23.2495V14.8143C90.8274 13.2233 90.4381 12.758 89.2548 12.758C88.8189 12.758 88.0404 12.8631 87.2775 13.2083C87.3242 13.7036 87.3553 14.2739 87.3553 14.8143V23.2646C87.3553 23.5347 87.1218 23.7899 86.8415 23.7899H83.7276C83.4473 23.7899 83.1827 23.5347 83.1827 23.2646V14.8143C83.1827 13.2233 82.8713 12.758 81.688 12.758C81.2053 12.758 80.5358 13.0131 79.7418 13.4034V23.2646C79.7418 23.5347 79.5082 23.7899 79.228 23.7899H76.114C75.8338 23.7899 75.5691 23.5347 75.5691 23.2646V10.0713C75.5691 9.80114 75.8026 9.576 76.0829 9.576H79.01C79.2902 9.576 79.5238 9.80114 79.5238 10.0713V10.6116C80.5981 9.92121 81.8437 9.36587 83.3228 9.36587C84.6929 9.36587 85.6427 9.7411 86.3589 10.5816C87.8536 9.77112 88.8812 9.36587 90.5471 9.36587C93.9413 9.36587 94.9689 11.5422 94.9689 14.7993V23.2646C95 23.5347 94.7354 23.7749 94.4551 23.7749Z" fill="#364FD9"/><path d="M29.4517 17.3659V23.2946C29.4517 23.5647 29.2181 23.7899 28.9379 23.7899H27.7079C27.4276 23.7899 27.1941 23.5647 27.1941 23.2946V5.64353C27.1941 5.37336 27.4276 5.14822 27.7079 5.14822H28.9379C29.2181 5.14822 29.4517 5.37336 29.4517 5.64353V15.955V17.3659Z" fill="#364FD9"/><path d="M37.6102 23.1295L32.083 16.6754L37.6102 10.2214C37.8282 9.96624 37.6413 9.576 37.2988 9.576H35.8197C35.5706 9.576 35.337 9.68106 35.1813 9.87618L29.3583 16.6904L35.1813 23.5047C35.337 23.6848 35.5706 23.8049 35.8197 23.8049H37.2988C37.6413 23.7749 37.8282 23.3996 37.6102 23.1295Z" fill="#364FD9"/></svg>